<svg width="512" height="449" viewBox="0 0 512 449" fill="none" xmlns="http://www.w3.org/2000/svg">
<path d="M418.195 145.309C412.795 143.509 407.395 141.809 401.995 140.209C402.895 136.509 403.695 132.809 404.495 129.109C416.795 69.5087 408.695 21.6087 381.395 5.80871C355.095 -9.29129 312.195 6.40871 268.795 44.2087C264.495 47.9087 260.295 51.8087 256.295 55.7087C253.595 53.1087 250.795 50.5087 247.995 48.0087C202.495 7.60871 156.895 -9.39129 129.595 6.50871C103.395 21.7087 95.5952 66.8087 106.595 123.209C107.695 128.809 108.895 134.309 110.295 139.909C103.895 141.709 97.5952 143.709 91.6952 145.809C38.2952 164.309 -0.00476074 193.509 -0.00476074 223.709C-0.00476074 254.909 40.7952 286.209 96.2952 305.209C100.795 306.709 105.295 308.209 109.895 309.509C108.395 315.509 107.095 321.409 105.895 327.509C95.3952 383.009 103.595 427.009 129.795 442.109C156.795 457.709 202.195 441.709 246.395 403.009C249.895 399.909 253.395 396.709 256.895 393.309C261.295 397.609 265.895 401.709 270.495 405.709C313.295 442.509 355.595 457.409 381.695 442.309C408.695 426.709 417.495 379.409 406.095 321.809C405.195 317.409 404.195 312.909 403.095 308.309C406.295 307.409 409.395 306.409 412.495 305.409C470.195 286.309 511.995 255.409 511.995 223.709C511.995 193.409 472.595 164.009 418.195 145.309ZM282.895 60.4087C320.095 28.0087 354.795 15.3087 370.595 24.4087C387.495 34.1087 393.995 73.3087 383.395 124.809C382.695 128.209 381.995 131.509 381.095 134.809C358.895 129.809 336.395 126.209 313.795 124.209C300.795 105.609 286.595 87.8087 271.195 71.1087C275.095 67.4087 278.895 63.9087 282.895 60.4087ZM167.195 275.609C172.295 284.309 177.495 293.009 182.995 301.509C167.395 299.809 151.895 297.309 136.595 294.009C140.995 279.609 146.495 264.709 152.895 249.509C157.495 258.309 162.195 267.009 167.195 275.609ZM136.895 155.309C151.295 152.109 166.595 149.509 182.495 147.509C177.195 155.809 171.995 164.309 167.095 172.909C162.195 181.409 157.395 190.109 152.895 198.909C146.595 184.009 141.295 169.409 136.895 155.309ZM164.295 224.209C170.895 210.409 178.095 196.909 185.695 183.609C193.295 170.309 201.495 157.409 210.095 144.709C225.095 143.609 240.395 143.009 255.995 143.009C271.595 143.009 286.995 143.609 301.895 144.709C310.395 157.309 318.495 170.209 326.195 183.409C333.895 196.609 341.095 210.109 347.895 223.809C341.195 237.609 333.995 251.209 326.295 264.609C318.695 277.909 310.595 290.809 302.095 303.609C287.195 304.709 271.695 305.209 255.995 305.209C240.295 305.209 225.095 304.709 210.395 303.809C201.695 291.109 193.495 278.109 185.795 264.809C178.095 251.509 170.995 238.009 164.295 224.209ZM344.895 275.409C349.995 266.609 354.795 257.709 359.495 248.709C365.895 263.209 371.495 277.909 376.395 293.009C360.895 296.509 345.195 299.209 329.395 301.009C334.795 292.609 339.895 284.009 344.895 275.409ZM359.295 198.909C354.595 190.109 349.795 181.309 344.795 172.709C339.895 164.209 334.795 155.809 329.495 147.509C345.595 149.509 360.995 152.209 375.395 155.509C370.795 170.309 365.395 184.709 359.295 198.909ZM256.195 86.4087C266.695 97.8087 276.595 109.809 285.795 122.209C265.995 121.309 246.095 121.309 226.295 122.209C236.095 109.309 246.195 97.3087 256.195 86.4087ZM140.195 25.1087C156.995 15.3087 194.295 29.3087 233.595 64.1087C236.095 66.3087 238.595 68.7087 241.195 71.1087C225.695 87.8087 211.395 105.609 198.295 124.209C175.695 126.209 153.295 129.709 131.095 134.609C129.795 129.509 128.695 124.309 127.595 119.109C118.195 70.7087 124.395 34.2087 140.195 25.1087ZM115.695 288.709C111.495 287.509 107.395 286.209 103.295 284.809C81.9952 278.109 57.7952 267.509 40.2952 253.609C30.1952 246.609 23.3952 235.809 21.4952 223.709C21.4952 205.409 53.0952 182.009 98.6952 166.109C104.395 164.109 110.195 162.309 115.995 160.609C122.795 182.309 130.995 203.609 140.495 224.209C130.895 245.109 122.595 266.709 115.695 288.709ZM232.295 386.709C215.795 401.809 196.695 413.809 175.895 422.009C164.795 427.309 151.995 427.809 140.595 423.309C124.695 414.109 118.095 378.809 127.095 331.309C128.195 325.709 129.395 320.109 130.795 314.609C153.195 319.409 175.795 322.709 198.695 324.409C211.895 343.109 226.395 361.009 241.895 377.809C238.695 380.909 235.495 383.909 232.295 386.709ZM256.795 362.409C246.595 351.409 236.395 339.209 226.495 326.109C236.095 326.509 245.995 326.709 255.995 326.709C266.295 326.709 276.395 326.509 286.395 326.009C277.195 338.709 267.295 350.809 256.795 362.409ZM387.495 392.409C386.595 404.609 380.595 416.009 370.995 423.709C355.095 432.909 321.195 420.909 284.595 389.509C280.395 385.909 276.195 382.009 271.895 378.009C287.195 361.109 301.295 343.209 314.095 324.409C336.995 322.509 359.795 319.009 382.295 313.909C383.295 318.009 384.195 322.109 384.995 326.109C389.895 347.709 390.695 370.209 387.495 392.409ZM405.695 284.909C402.895 285.809 400.095 286.709 397.195 287.509C390.195 265.709 381.595 244.409 371.695 223.709C381.295 203.309 389.395 182.309 396.195 160.809C401.395 162.309 406.395 163.909 411.195 165.509C457.795 181.509 490.495 205.309 490.495 223.509C490.495 243.109 455.595 268.409 405.695 284.909ZM255.995 269.909C281.295 269.909 301.795 249.409 301.795 224.109C301.795 198.809 281.295 178.309 255.995 178.309C230.695 178.309 210.195 198.809 210.195 224.109C210.195 249.409 230.695 269.909 255.995 269.909Z" fill="#9747FF"/>
</svg>
